<?xml version="1.0" encoding="utf-8"?>
<!-- Generator: Adobe Illustrator 18.1.1, SVG Export Plug-In . SVG Version: 6.00 Build 0)  -->
<svg width="150" height="150" xmlns="http://www.w3.org/2000/svg" xmlns:svg="http://www.w3.org/2000/svg">
 <g>
  <title>Layer 1</title>
  <path stroke="null" class="first" id="svg_12" d="m79.422836,71.337158c0.768898,0.996559 1.281479,2.242264 1.281479,3.487999c0,3.238861 -2.562912,5.730278 -5.894722,5.730278c-1.794151,0 -3.588173,-0.747437 -4.613358,-2.242264l-3.331787,-2.9897l0,0l-15.377628,-14.699436c-0.256344,-0.24913 -1.537827,-1.245712 -1.537827,-1.245712c-4.100719,-3.48798 -9.226631,-5.231972 -14.352482,-5.231972c-12.04574,0 -21.784995,9.467392 -21.784995,21.17712c0,11.709709 9.739261,21.177116 21.784995,21.177116c5.894848,0 11.27702,-2.491425 16.915436,-7.723427l2.819241,-2.740601l0,0c1.025166,-0.996529 2.562874,-1.743965 4.100746,-1.743965c3.33181,0 5.89468,2.491409 5.89468,5.730286c0,1.49485 -0.512505,2.740555 -1.537754,3.737106l0,0l-0.256203,0.249176c0,0 -0.256413,0.249123 -0.256413,0.249123l-2.819172,2.491417c-7.688774,7.225159 -15.89024,10.962303 -25.116859,10.962303c-18.453072,0 -33.574589,-14.69944 -33.574589,-32.637688c0,-17.938267 15.12151,-32.637695 33.574589,-32.637695c8.201488,0 15.890282,2.989738 22.297634,8.221706c0,0 1.537792,1.494873 1.794098,1.743999l18.965744,17.938293c0,0 0.256203,0.249092 0.256203,0.249092l0.768951,0.747444l0,0l-0.000008,0z" fill="#FFCE00">
  <animateTransform attributeName="transform" type="rotate" from="0 75 75" to="360 75 75" begin="1" dur="3" repeatDur="indefinite"/>
  </path>
  <path stroke="null" class="second" id="svg_13" d="m114.278793,106.964561c-8.201401,0 -15.890205,-2.989685 -22.297607,-8.22171c0,0 -1.537773,-1.49485 -1.794052,-1.743988l-18.965744,-17.938255c0,0 -0.256332,-0.249153 -0.256332,-0.249153l-0.256248,-0.249161l0,0c-0.768898,-0.996559 -1.281403,-2.242271 -1.281403,-3.487976c0,-3.238876 2.562889,-5.730301 5.894676,-5.730301c1.794106,0 3.588097,0.747437 4.613235,2.242302l3.331833,2.989708l0,0l15.37764,14.699394c0.256409,0.249161 1.537895,1.24572 1.537895,1.24572c4.100632,3.488022 9.226486,5.23201 14.352402,5.23201c12.045845,0 21.784981,-9.467415 21.784981,-21.177124c0,-11.709709 -9.739136,-21.177113 -21.784981,-21.177113c-5.894737,0 -11.276962,2.491428 -16.915382,7.723396l-2.819328,2.740585l0,0c-1.025085,0.996555 -2.562943,1.743977 -4.100616,1.743977c-3.331833,0 -5.894737,-2.491421 -5.894737,-5.730278c0,-1.494843 0.512482,-2.740536 1.537712,-3.737141l0,0l0.256256,-0.249111c0,0 0.256363,-0.249165 0.256363,-0.249165l2.819107,-2.491425c7.688835,-7.225121 15.890312,-10.962254 25.116951,-10.962254c18.453094,0 33.574463,14.699394 33.574463,32.637657c-0.512589,17.43998 -15.63385,32.139404 -34.087082,32.139404l0,0l0,0.000015l0,-0.000015l0,0z" fill="#00FF67">
  <animateTransform attributeName="transform" type="rotate" from="0 75 75" to="360 75 75" begin="1" dur="3" repeatDur="indefinite"/>
  
</path>
</g>
</svg>

