<?xml version="1.0" encoding="utf-8"?>
<!-- Generator: Adobe Illustrator 18.1.1, SVG Export Plug-In . SVG Version: 6.00 Build 0)  -->
<svg version="1.1" id="Capa_1" xmlns="http://www.w3.org/2000/svg" xmlns:xlink="http://www.w3.org/1999/xlink" x="0px" y="0px"
	 viewBox="0 0 171.8 27.5" enable-background="new 0 0 171.8 27.5" xml:space="preserve">
<path fill="#FFCE00" d="M15.8,11.1h-2.3v0l-11.4,0c-1.2,0-2.1,0.9-2.1,2.1s0.9,2.1,2.1,2.1h2.5l0,0h11.2c1.2,0,2.1-0.9,2.1-2.1
	S17,11.1,15.8,11.1z"/>
<path fill="#FFCE00" d="M38,24.5c0-1.2-0.9-2.1-2.1-2.1c0,0,0,0,0,0c-4,0-6.5-2.6-6.5-7.4V2.3c0-1.3-1-2.3-2.3-2.3
	c-1.3,0-2.3,1-2.3,2.3v12.9c0,7.6,4.3,11.5,11.1,11.5c0,0,0,0,0,0v0C37.1,26.6,38,25.7,38,24.5z"/>
<path fill="#FFCE00" d="M68.3,12.8L60.2,2.3c-0.6-0.8-1.3-1.3-2.4-1.3h-0.5C56,0.9,55,2,55,3.2v21.9c0,1.2,1,2.2,2.3,2.2
	c1.2,0,2.2-1,2.2-2.2V8.6l5.4,6.9c0.1,0.1,0.2,0.3,0.3,0.4l0.1,0.1l0,0c0.4,0.4,0.9,0.6,1.5,0.6c1.2,0,2.2-1,2.2-2.2
	C68.9,13.8,68.7,13.2,68.3,12.8L68.3,12.8z"/>
<path fill="#FFCE00" d="M75.4,0.9c-0.2,0-0.4,0-0.6,0.1L75.4,0.9C75.5,0.9,75.5,0.9,75.4,0.9z"/>
<path fill="#FFCE00" d="M90.5,3.5c0-0.1,0-0.1,0-0.2c0-1.3-1-2.3-2.3-2.3c-1.3,0-2.3,1-2.3,2.3h0c0,0,0,0,0,0.1v21.6
	c0,1.1,0.8,2.1,1.8,2.3c0.2,0,0.3,0,0.5,0c1.3,0,2.3-1,2.3-2.3c0-0.1,0-0.1,0-0.2V3.5z"/>
<path fill="#00FF67" d="M17.5,0.2H2.3C1,0.2,0,1.2,0,2.5v21.7c0,1.3,1,2.3,2.3,2.3c1.3,0,2.3-1,2.3-2.3v-8.5v-4.2V4.4h12.9
	c1.2,0,2.1-0.9,2.1-2.1C19.6,1.1,18.7,0.2,17.5,0.2z"/>
<path fill="#00FF67" d="M33.7,24.5c0-1.2,0.9-2.1,2.1-2.1c0,0,0,0,0,0c4,0,6.5-2.6,6.5-7.4V2.3c0-1.3,1-2.3,2.3-2.3
	C45.9,0,47,1,47,2.3v12.9c0,7.6-4.3,11.5-11.1,11.5c0,0,0,0,0,0v0C34.7,26.6,33.7,25.7,33.7,24.5z"/>
<g>
	<path fill="#00FF67" d="M65.1,15.8L72.9,26c0.6,0.8,1.3,1.3,2.4,1.3h0.5c1.3,0,2.3-1,2.3-2.3l0-21.9c0-1.2-1-2.2-2.3-2.2
		c-1.2,0-2.2,1-2.2,2.2l0,16.5l-5-6.5c-0.1-0.1-0.2-0.3-0.3-0.4l-0.1-0.1l0,0c-0.4-0.4-0.9-0.6-1.5-0.6c-1.2,0-2.2,1-2.2,2.2
		C64.5,14.9,64.7,15.4,65.1,15.8L65.1,15.8z"/>
	<path fill="#00FF67" d="M57.6,27.3c0.2,0,0.4,0,0.6-0.1L57.6,27.3C57.6,27.3,57.6,27.3,57.6,27.3z"/>
</g>
<path fill="#00FF67" d="M95.6,1.1h-7.5c0,0-0.1,0-0.1,0c-1.2,0-2.1,0.9-2.1,2.1c0,1.1,0.9,2.1,2.1,2.1v0h7.6c5.5,0,9.1,3.8,9.1,8.9
	v0.1c0,5.1-3.6,8.8-9.1,8.8h-7.5c0,0-0.1,0-0.1,0c-1.2,0-2.1,0.9-2.1,2.1c0,1.1,0.9,2.1,2.1,2.1v0h7.6c8.2,0,13.9-5.7,13.9-13v-0.1
	C109.5,6.7,103.8,1.1,95.6,1.1z"/>
<path fill="#FFCE00" d="M144.8,12.5c0.3,0.4,0.5,0.9,0.5,1.4c0,1.3-1,2.3-2.3,2.3c-0.7,0-1.4-0.3-1.8-0.9l-1.3-1.2l0,0l-6-5.9
	c-0.1-0.1-0.6-0.5-0.6-0.5c-1.6-1.4-3.6-2.1-5.6-2.1c-4.7,0-8.5,3.8-8.5,8.5c0,4.7,3.8,8.5,8.5,8.5c2.3,0,4.4-1,6.6-3.1l1.1-1.1l0,0
	c0.4-0.4,1-0.7,1.6-0.7c1.3,0,2.3,1,2.3,2.3c0,0.6-0.2,1.1-0.6,1.5l0,0l-0.1,0.1c0,0-0.1,0.1-0.1,0.1l-1.1,1c-3,2.9-6.2,4.4-9.8,4.4
	c-7.2,0-13.1-5.9-13.1-13.1c0-7.2,5.9-13.1,13.1-13.1c3.2,0,6.2,1.2,8.7,3.3c0,0,0.6,0.6,0.7,0.7l7.4,7.2c0,0,0.1,0.1,0.1,0.1
	L144.8,12.5L144.8,12.5z"/>
<path fill="#00FF67" d="M158.4,26.8c-3.2,0-6.2-1.2-8.7-3.3c0,0-0.6-0.6-0.7-0.7l-7.4-7.2c0,0-0.1-0.1-0.1-0.1l-0.1-0.1l0,0
	c-0.3-0.4-0.5-0.9-0.5-1.4c0-1.3,1-2.3,2.3-2.3c0.7,0,1.4,0.3,1.8,0.9l1.3,1.2l0,0l6,5.9c0.1,0.1,0.6,0.5,0.6,0.5
	c1.6,1.4,3.6,2.1,5.6,2.1c4.7,0,8.5-3.8,8.5-8.5c0-4.7-3.8-8.5-8.5-8.5c-2.3,0-4.4,1-6.6,3.1l-1.1,1.1l0,0c-0.4,0.4-1,0.7-1.6,0.7
	c-1.3,0-2.3-1-2.3-2.3c0-0.6,0.2-1.1,0.6-1.5l0,0l0.1-0.1c0,0,0.1-0.1,0.1-0.1l1.1-1c3-2.9,6.2-4.4,9.8-4.4
	c7.2,0,13.1,5.9,13.1,13.1C171.5,20.9,165.6,26.8,158.4,26.8z"/>
</svg>
